<mxfile host="app.diagrams.net" modified="2023-09-18T23:52:59.763Z" agent="Mozilla/5.0 (Windows NT 10.0; Win64; x64) AppleWebKit/537.36 (KHTML, like Gecko) Chrome/116.0.0.0 Safari/537.36" etag="lAdNtNOlPc_XQtXSOvMH" version="21.7.4" type="device">
  <diagram name="Página-1" id="8fmjevdhfhz7o3AnK5xL">
    <mxGraphModel dx="1050" dy="566" grid="1" gridSize="10" guides="1" tooltips="1" connect="1" arrows="1" fold="1" page="1" pageScale="1" pageWidth="827" pageHeight="1169" math="0" shadow="0">
      <root>
        <mxCell id="0" />
        <mxCell id="1" parent="0" />
        <mxCell id="_qyfr5IZ9HIq8Rc6LPQ2-1" value="Aguardando" style="swimlane;fontStyle=1;align=center;verticalAlign=middle;childLayout=stackLayout;horizontal=1;startSize=30;horizontalStack=0;resizeParent=0;resizeLast=1;container=0;fontColor=#000000;collapsible=0;rounded=1;arcSize=30;strokeColor=#0D0000;fillColor=#FFFFFF;swimlaneFillColor=default;dropTarget=0;" vertex="1" parent="1">
          <mxGeometry x="180" y="220" width="160" height="60" as="geometry" />
        </mxCell>
        <mxCell id="_qyfr5IZ9HIq8Rc6LPQ2-2" value="Faça: Exibir tarefas" style="text;html=1;align=center;verticalAlign=middle;spacingLeft=4;spacingRight=4;whiteSpace=wrap;overflow=hidden;rotatable=0;" vertex="1" parent="_qyfr5IZ9HIq8Rc6LPQ2-1">
          <mxGeometry y="30" width="160" height="30" as="geometry" />
        </mxCell>
        <mxCell id="_qyfr5IZ9HIq8Rc6LPQ2-22" value="Subtitle" style="text;html=1;align=center;verticalAlign=middle;spacingLeft=4;spacingRight=4;whiteSpace=wrap;overflow=hidden;rotatable=0;" vertex="1" parent="_qyfr5IZ9HIq8Rc6LPQ2-1">
          <mxGeometry y="60" width="160" as="geometry" />
        </mxCell>
        <mxCell id="_qyfr5IZ9HIq8Rc6LPQ2-4" value="" style="ellipse;html=1;shape=endState;fillColor=#000000;strokeColor=#0D0000;" vertex="1" parent="1">
          <mxGeometry x="410" y="595" width="30" height="30" as="geometry" />
        </mxCell>
        <mxCell id="_qyfr5IZ9HIq8Rc6LPQ2-10" value="Criando" style="swimlane;fontStyle=1;align=center;verticalAlign=middle;childLayout=stackLayout;horizontal=1;startSize=30;horizontalStack=0;resizeParent=0;resizeLast=1;container=0;fontColor=#000000;collapsible=0;rounded=1;arcSize=30;strokeColor=#0D0000;fillColor=#FFFFFF;swimlaneFillColor=default;dropTarget=0;" vertex="1" parent="1">
          <mxGeometry x="180" y="350" width="160" height="60" as="geometry" />
        </mxCell>
        <mxCell id="_qyfr5IZ9HIq8Rc6LPQ2-16" style="edgeStyle=orthogonalEdgeStyle;rounded=0;orthogonalLoop=1;jettySize=auto;html=1;" edge="1" parent="_qyfr5IZ9HIq8Rc6LPQ2-10" source="_qyfr5IZ9HIq8Rc6LPQ2-11">
          <mxGeometry relative="1" as="geometry">
            <mxPoint x="80" y="110" as="targetPoint" />
          </mxGeometry>
        </mxCell>
        <mxCell id="_qyfr5IZ9HIq8Rc6LPQ2-24" value="Atribuir tarefa" style="edgeLabel;html=1;align=center;verticalAlign=middle;resizable=0;points=[];" vertex="1" connectable="0" parent="_qyfr5IZ9HIq8Rc6LPQ2-16">
          <mxGeometry x="-0.0496" y="1" relative="1" as="geometry">
            <mxPoint as="offset" />
          </mxGeometry>
        </mxCell>
        <mxCell id="_qyfr5IZ9HIq8Rc6LPQ2-11" value="Faça: Criar tarefas" style="text;html=1;align=center;verticalAlign=middle;spacingLeft=4;spacingRight=4;whiteSpace=wrap;overflow=hidden;rotatable=0;" vertex="1" parent="_qyfr5IZ9HIq8Rc6LPQ2-10">
          <mxGeometry y="30" width="160" height="30" as="geometry" />
        </mxCell>
        <mxCell id="_qyfr5IZ9HIq8Rc6LPQ2-12" value="Atribuindo" style="swimlane;fontStyle=1;align=center;verticalAlign=middle;childLayout=stackLayout;horizontal=1;startSize=30;horizontalStack=0;resizeParent=0;resizeLast=1;container=0;fontColor=#000000;collapsible=0;rounded=1;arcSize=30;strokeColor=#0D0000;fillColor=#FFFFFF;swimlaneFillColor=default;dropTarget=0;" vertex="1" parent="1">
          <mxGeometry x="180" y="470" width="160" height="60" as="geometry" />
        </mxCell>
        <mxCell id="_qyfr5IZ9HIq8Rc6LPQ2-13" value="Faça: Atribuir tarefa" style="text;html=1;align=center;verticalAlign=middle;spacingLeft=4;spacingRight=4;whiteSpace=wrap;overflow=hidden;rotatable=0;" vertex="1" parent="_qyfr5IZ9HIq8Rc6LPQ2-12">
          <mxGeometry y="30" width="160" height="30" as="geometry" />
        </mxCell>
        <mxCell id="_qyfr5IZ9HIq8Rc6LPQ2-15" style="edgeStyle=orthogonalEdgeStyle;rounded=0;orthogonalLoop=1;jettySize=auto;html=1;entryX=0.5;entryY=0;entryDx=0;entryDy=0;" edge="1" parent="1" source="_qyfr5IZ9HIq8Rc6LPQ2-2" target="_qyfr5IZ9HIq8Rc6LPQ2-10">
          <mxGeometry relative="1" as="geometry" />
        </mxCell>
        <mxCell id="_qyfr5IZ9HIq8Rc6LPQ2-23" value="Criar tarefa" style="edgeLabel;html=1;align=center;verticalAlign=middle;resizable=0;points=[];" vertex="1" connectable="0" parent="_qyfr5IZ9HIq8Rc6LPQ2-15">
          <mxGeometry x="-0.1143" y="4" relative="1" as="geometry">
            <mxPoint as="offset" />
          </mxGeometry>
        </mxCell>
        <mxCell id="_qyfr5IZ9HIq8Rc6LPQ2-30" style="edgeStyle=orthogonalEdgeStyle;rounded=0;orthogonalLoop=1;jettySize=auto;html=1;" edge="1" parent="1" source="_qyfr5IZ9HIq8Rc6LPQ2-17">
          <mxGeometry relative="1" as="geometry">
            <mxPoint x="400" y="610" as="targetPoint" />
          </mxGeometry>
        </mxCell>
        <mxCell id="_qyfr5IZ9HIq8Rc6LPQ2-17" value="Validando" style="swimlane;fontStyle=1;align=center;verticalAlign=middle;childLayout=stackLayout;horizontal=1;startSize=30;horizontalStack=0;resizeParent=0;resizeLast=1;container=0;fontColor=#000000;collapsible=0;rounded=1;arcSize=30;strokeColor=#0D0000;fillColor=#FFFFFF;swimlaneFillColor=default;dropTarget=0;" vertex="1" parent="1">
          <mxGeometry x="180" y="580" width="160" height="60" as="geometry" />
        </mxCell>
        <mxCell id="_qyfr5IZ9HIq8Rc6LPQ2-18" value="Faça: Validar tarefa" style="text;html=1;align=center;verticalAlign=middle;spacingLeft=4;spacingRight=4;whiteSpace=wrap;overflow=hidden;rotatable=0;" vertex="1" parent="_qyfr5IZ9HIq8Rc6LPQ2-17">
          <mxGeometry y="30" width="160" height="30" as="geometry" />
        </mxCell>
        <mxCell id="_qyfr5IZ9HIq8Rc6LPQ2-26" value="Faça: Validar tarefa" style="text;html=1;align=center;verticalAlign=middle;spacingLeft=4;spacingRight=4;whiteSpace=wrap;overflow=hidden;rotatable=0;" vertex="1" parent="_qyfr5IZ9HIq8Rc6LPQ2-17">
          <mxGeometry y="60" width="160" as="geometry" />
        </mxCell>
        <mxCell id="_qyfr5IZ9HIq8Rc6LPQ2-20" style="edgeStyle=orthogonalEdgeStyle;rounded=0;orthogonalLoop=1;jettySize=auto;html=1;entryX=0.5;entryY=0;entryDx=0;entryDy=0;" edge="1" parent="1" source="_qyfr5IZ9HIq8Rc6LPQ2-13" target="_qyfr5IZ9HIq8Rc6LPQ2-17">
          <mxGeometry relative="1" as="geometry" />
        </mxCell>
        <mxCell id="_qyfr5IZ9HIq8Rc6LPQ2-25" value="Validar tarefa" style="edgeLabel;html=1;align=center;verticalAlign=middle;resizable=0;points=[];" vertex="1" connectable="0" parent="_qyfr5IZ9HIq8Rc6LPQ2-20">
          <mxGeometry x="-0.08" y="-1" relative="1" as="geometry">
            <mxPoint as="offset" />
          </mxGeometry>
        </mxCell>
        <mxCell id="_qyfr5IZ9HIq8Rc6LPQ2-31" value="fim" style="text;html=1;align=center;verticalAlign=middle;resizable=0;points=[];autosize=1;strokeColor=none;fillColor=none;" vertex="1" parent="1">
          <mxGeometry x="405" y="618" width="40" height="30" as="geometry" />
        </mxCell>
        <mxCell id="_qyfr5IZ9HIq8Rc6LPQ2-34" value="" style="edgeStyle=orthogonalEdgeStyle;rounded=0;orthogonalLoop=1;jettySize=auto;html=1;" edge="1" parent="1" source="_qyfr5IZ9HIq8Rc6LPQ2-33" target="_qyfr5IZ9HIq8Rc6LPQ2-2">
          <mxGeometry relative="1" as="geometry" />
        </mxCell>
        <mxCell id="_qyfr5IZ9HIq8Rc6LPQ2-33" value="inicio" style="verticalLabelPosition=bottom;verticalAlign=top;html=1;shape=mxgraph.flowchart.on-page_reference;fillColor=#0D0000;" vertex="1" parent="1">
          <mxGeometry x="80" y="235" width="30" height="30" as="geometry" />
        </mxCell>
      </root>
    </mxGraphModel>
  </diagram>
</mxfile>
